<svg width="16" height="18" viewBox="0 0 16 18" fill="none" xmlns="http://www.w3.org/2000/svg">
<path fill-rule="evenodd" clip-rule="evenodd" d="M12.6288 12.423C12.8113 12.3317 13.021 12.3105 13.218 12.3635C13.4151 12.4165 13.5859 12.54 13.698 12.7105L13.7463 12.7955L15.413 16.1288C15.4724 16.2477 15.5026 16.379 15.5009 16.512C15.4993 16.6449 15.4659 16.7754 15.4035 16.8928C15.3411 17.0102 15.2515 17.1109 15.1423 17.1866C15.033 17.2623 14.9073 17.3108 14.7755 17.328L14.668 17.3346H1.33462C1.20168 17.3347 1.07066 17.3029 0.952497 17.242C0.834334 17.1811 0.73246 17.0928 0.655382 16.9845C0.578304 16.8761 0.528259 16.751 0.509427 16.6194C0.490594 16.4878 0.503519 16.3536 0.547124 16.228L0.588791 16.128L2.25546 12.7946C2.34887 12.6015 2.51314 12.4519 2.71409 12.3769C2.91503 12.3018 3.13717 12.3072 3.33428 12.3918C3.53139 12.4764 3.68829 12.6337 3.77233 12.8311C3.85636 13.0284 3.86107 13.2506 3.78546 13.4513L3.74629 13.5405L2.68296 15.668H13.3196L12.2563 13.5405C12.1576 13.3429 12.1414 13.1142 12.2113 12.9046C12.2811 12.6951 12.4313 12.5218 12.6288 12.423ZM8.00129 0.667969C9.54839 0.667969 11.0321 1.28255 12.1261 2.37651C13.22 3.47047 13.8346 4.95421 13.8346 6.5013C13.8346 8.4863 12.7605 10.0988 11.6488 11.243C11.0347 11.8667 10.3597 12.4272 9.63379 12.9163L9.32296 13.1213L9.04629 13.2955C9.00296 13.3213 8.96129 13.3455 8.92212 13.3705L8.70796 13.4938C8.26796 13.7438 7.73462 13.7438 7.29462 13.4938L7.08046 13.3696L6.82212 13.2121C6.77444 13.1821 6.72694 13.1519 6.67962 13.1213L6.36879 12.9163C5.64291 12.4272 4.96787 11.8667 4.35379 11.243C3.24212 10.0988 2.16796 8.4863 2.16796 6.5013C2.16796 4.95421 2.78254 3.47047 3.8765 2.37651C4.97046 1.28255 6.45419 0.667969 8.00129 0.667969ZM8.00129 4.83464C7.55926 4.83464 7.13534 5.01023 6.82278 5.32279C6.51022 5.63535 6.33462 6.05927 6.33462 6.5013C6.33462 6.94333 6.51022 7.36725 6.82278 7.67981C7.13534 7.99237 7.55926 8.16797 8.00129 8.16797C8.44332 8.16797 8.86724 7.99237 9.1798 7.67981C9.49236 7.36725 9.66796 6.94333 9.66796 6.5013C9.66796 6.05927 9.49236 5.63535 9.1798 5.32279C8.86724 5.01023 8.44332 4.83464 8.00129 4.83464Z" fill="black"/>
</svg>
